<?xml version="1.0" encoding="UTF-8" standalone="no"?>
<!-- Generator: Adobe Illustrator 16.0.0, SVG Export Plug-In . SVG Version: 6.00 Build 0)  -->

<svg
   version="1.1"
   id="Layer_1"
   x="0px"
   y="0px"
   width="93.763741"
   height="21.326626"
   viewBox="0 0 93.763741 21.326626"
   enable-background="new 0 0 220 21.01"
   xml:space="preserve"
   sodipodi:docname="unrn_logo.svg"
   inkscape:version="1.4.2 (ebf0e940d0, 2025-05-08)"
   inkscape:export-filename="unrn_logo.png"
   inkscape:export-xdpi="453.34308"
   inkscape:export-ydpi="453.34308"
   xmlns:inkscape="http://www.inkscape.org/namespaces/inkscape"
   xmlns:sodipodi="http://sodipodi.sourceforge.net/DTD/sodipodi-0.dtd"
   xmlns="http://www.w3.org/2000/svg"
   xmlns:svg="http://www.w3.org/2000/svg"><defs
   id="defs34">
	
	
	
</defs><sodipodi:namedview
   id="namedview34"
   pagecolor="#eb2242"
   bordercolor="#000000"
   borderopacity="0.25"
   inkscape:showpageshadow="2"
   inkscape:pageopacity="0.0"
   inkscape:pagecheckerboard="0"
   inkscape:deskcolor="#d1d1d1"
   inkscape:zoom="9.0909092"
   inkscape:cx="41.36"
   inkscape:cy="21.34"
   inkscape:window-width="1920"
   inkscape:window-height="1043"
   inkscape:window-x="0"
   inkscape:window-y="0"
   inkscape:window-maximized="1"
   inkscape:current-layer="Layer_1"
   inkscape:export-bgcolor="#eb1c38ff" />

<g
   id="g4"
   transform="translate(5.1908661,-0.08718695)"
   style="fill:#ffffff;fill-opacity:1">
		<path
   fill="#eb2242"
   d="m 17.221,12.117 c 0,3.007 -0.683,4.784 -2.05,6.151 -1.367,1.366 -3.554,2.214 -6.561,2.214 -3.007,0 -5.193,-0.848 -6.561,-2.214 C 0.683,16.901 0,15.125 0,12.117 V 1.32 h 6.205 v 11.07 c 0,1.121 0.219,1.64 0.629,2.051 0.409,0.41 0.956,0.683 1.776,0.683 0.82,0 1.367,-0.273 1.776,-0.683 0.41,-0.411 0.603,-0.957 0.603,-2.051 V 1.32 h 6.231 v 10.797 z"
   id="path1"
   style="fill:#ffffff;fill-opacity:1" />
		<path
   fill="#eb2242"
   d="M 40.095,20.181 H 33.671 L 27.931,9.657 c 0,0 0.137,2.051 0.137,3.417 v 7.107 H 22.054 V 1.32 h 6.697 l 5.467,10.523 c 0,0 -0.137,-2.05 -0.137,-3.417 V 1.32 h 6.014 z"
   id="path2"
   style="fill:#ffffff;fill-opacity:1" />
		<path
   fill="#eb2242"
   d="m 62.147,20.181 h -7.106 l -3.008,-6.287 h -0.792 v 6.287 H 45.063 V 1.32 h 8.2 c 2.323,0 4.101,0.41 5.467,1.366 1.367,0.957 2.324,2.597 2.324,4.647 0,3.827 -2.324,5.194 -3.144,5.686 z M 54.139,6.322 C 53.866,6.104 53.455,5.967 52.772,5.967 h -1.558 v 3.281 h 1.558 c 0.684,0 1.121,-0.136 1.367,-0.328 C 54.44,8.701 54.823,8.427 54.823,7.608 54.822,6.787 54.412,6.513 54.139,6.322 Z"
   id="path3"
   style="fill:#ffffff;fill-opacity:1" />
		<path
   fill="#eb2242"
   d="M 83.382,20.181 H 76.958 L 71.217,9.657 c 0,0 0.137,2.051 0.137,3.417 v 7.107 H 65.341 V 1.32 h 6.697 l 5.467,10.523 c 0,0 -0.137,-2.05 -0.137,-3.417 V 1.32 h 6.014 z"
   id="path4"
   style="fill:#ffffff;fill-opacity:1" />
	</g>
</svg>
