<?xml version="1.0" encoding="UTF-8" standalone="no"?>
<svg
   width="20"
   height="20"
   viewBox="0 0 20 20"
   fill="none"
   version="1.1"
   id="svg1"
   sodipodi:docname="CandadoAbierto.svg"
   inkscape:version="1.4.2 (f4327f4, 2025-05-13)"
   xmlns:inkscape="http://www.inkscape.org/namespaces/inkscape"
   xmlns:sodipodi="http://sodipodi.sourceforge.net/DTD/sodipodi-0.dtd"
   xmlns="http://www.w3.org/2000/svg"
   xmlns:svg="http://www.w3.org/2000/svg">
  <defs
     id="defs1">
    <inkscape:path-effect
       effect="fillet_chamfer"
       id="path-effect4"
       is_visible="true"
       lpeversion="1"
       nodesatellites_param="F,0,0,1,0,0,0,1 @ F,0,0,1,0,0.37763702,0,1 @ F,0,0,1,0,0.36094988,0,1 @ F,0,0,1,0,0,0,1"
       radius="0"
       unit="px"
       method="auto"
       mode="F"
       chamfer_steps="1"
       flexible="false"
       use_knot_distance="true"
       apply_no_radius="true"
       apply_with_radius="true"
       only_selected="false"
       hide_knots="false" />
  </defs>
  <sodipodi:namedview
     id="namedview1"
     pagecolor="#505050"
     bordercolor="#eeeeee"
     borderopacity="1"
     inkscape:showpageshadow="0"
     inkscape:pageopacity="0"
     inkscape:pagecheckerboard="0"
     inkscape:deskcolor="#505050"
     inkscape:zoom="28.814601"
     inkscape:cx="7.7044273"
     inkscape:cy="11.261652"
     inkscape:window-width="1858"
     inkscape:window-height="1057"
     inkscape:window-x="54"
     inkscape:window-y="-8"
     inkscape:window-maximized="1"
     inkscape:current-layer="svg1" />
  <path
     d="M 5.903426,8.5163522 C 5.2511239,7.7149839 4.9198381,6.6998311 4.9739015,5.6679456 5.0279711,4.6360678 5.4635187,3.6610882 6.1960046,2.9322847 6.9284827,2.2034875 7.9056569,1.7728252 8.9377639,1.7239749 9.9699479,1.6750615 10.983394,2.0114781 11.781452,2.6678265 M 4.16667,9.16667 H 15.8333 c 0.9205,0 1.6667,0.74619 1.6667,1.66663 v 5.8334 c 0,0.9204 -0.7462,1.6666 -1.6667,1.6666 H 4.16667 C 3.24619,18.3333 2.5,17.5871 2.5,16.6667 V 10.8333 C 2.5,9.91286 3.24619,9.16667 4.16667,9.16667 Z"
     stroke="#1E1E1E"
     stroke-width="2"
     stroke-linecap="round"
     stroke-linejoin="round"
     id="path1"
     style="stroke:#000000;stroke-opacity:1"
     sodipodi:nodetypes="ccsccsssssssss" />
  <circle
     style="fill:#000000;fill-opacity:1;stroke:#000000;stroke-width:0.474852;stroke-linecap:round;stroke-linejoin:round"
     id="path2"
     cx="9.9726877"
     cy="12.813399"
     r="1.6204928" />
  <path
     style="baseline-shift:baseline;display:inline;overflow:visible;opacity:1;vector-effect:none;fill:#000000;enable-background:accumulate;stop-color:#000000;stop-opacity:1"
     d="m 9.5,14.095368 v 1.179339 a 0.37763702,0.37763702 45 0 0 0.377637,0.377637 l 0.261413,0 A 0.36094988,0.36094988 135 0 0 10.5,15.291394 v -1.196026 z"
     id="path3"
     inkscape:path-effect="#path-effect4"
     inkscape:original-d="m 9.5,14.095368 v 1.556976 h 1 v -1.556976 z"
     transform="matrix(1.7157004,0,0,1.7157004,-7.1843167,-10.543001)"
     sodipodi:nodetypes="ccccc" />
</svg>
