<?xml version="1.0" encoding="UTF-8" standalone="no"?>
<svg
   width="15"
   height="13"
   viewBox="0 0 15 13"
   fill="none"
   version="1.1"
   id="svg1"
   sodipodi:docname="Colapsador.svg"
   inkscape:version="1.4.2 (f4327f4, 2025-05-13)"
   xmlns:inkscape="http://www.inkscape.org/namespaces/inkscape"
   xmlns:sodipodi="http://sodipodi.sourceforge.net/DTD/sodipodi-0.dtd"
   xmlns="http://www.w3.org/2000/svg"
   xmlns:svg="http://www.w3.org/2000/svg">
  <defs
     id="defs1" />
  <sodipodi:namedview
     id="namedview1"
     pagecolor="#505050"
     bordercolor="#eeeeee"
     borderopacity="1"
     inkscape:showpageshadow="0"
     inkscape:pageopacity="0"
     inkscape:pagecheckerboard="0"
     inkscape:deskcolor="#505050"
     inkscape:zoom="22.165078"
     inkscape:cx="4.8499716"
     inkscape:cy="5.1206677"
     inkscape:window-width="1920"
     inkscape:window-height="1017"
     inkscape:window-x="-8"
     inkscape:window-y="-8"
     inkscape:window-maximized="1"
     inkscape:current-layer="svg1" />
  <path
     d="M 8.4145521,12.024588 13.708312,3.1871182 c 0.1091,-0.18902 0.1669,-0.40332 0.1675,-0.62158 6e-4,-0.21826 -0.0559,-0.43288 -0.164,-0.6225 -0.1081,-0.189625 -0.264,-0.347642 -0.4521,-0.458332 -0.1881,-0.110689 -0.4019,-0.170194 -0.6202,-0.172593 l -10.5874599,-10e-7 c -0.21825,0.0024 -0.43207,0.061904 -0.62019,0.172593 -0.188111,0.11069 -0.343963,0.268707 -0.45204798,0.458333 -0.108085,0.18962 -0.164635,0.40424 -0.164024,0.6225 6.11e-4,0.21826 0.058362,0.43256 0.167507,0.62157 L 6.2770421,12.024588 c 0.11142,0.1837 0.2683,0.3356 0.45551,0.441 0.1872,0.1054 0.39841,0.1607 0.61325,0.1607 0.21483,0 0.42604,-0.0553 0.61324,-0.1607 0.18721,-0.1054 0.34409,-0.2573 0.45551,-0.441 z"
     fill="#717171"
     stroke="#757575"
     stroke-linecap="round"
     stroke-linejoin="round"
     id="path1"
     sodipodi:nodetypes="ccsssccccscccscc"
     style="fill:#ffffff;fill-opacity:1;stroke:#888888;stroke-width:0.3;stroke-linecap:round;stroke-linejoin:round;stroke-miterlimit:4;stroke-dasharray:none;stroke-opacity:1" />
</svg>
