<?xml version="1.0" encoding="UTF-8" standalone="no"?>
<!-- Uploaded to: SVG Repo, www.svgrepo.com, Generator: SVG Repo Mixer Tools -->

<svg
   width="24"
   height="24"
   viewBox="0 -0.5 0.63 0.63"
   version="1.1"
   id="svg1"
   xmlns="http://www.w3.org/2000/svg"
   xmlns:svg="http://www.w3.org/2000/svg"
   xmlns:rdf="http://www.w3.org/1999/02/22-rdf-syntax-ns#"
   xmlns:cc="http://creativecommons.org/ns#"
   xmlns:dc="http://purl.org/dc/elements/1.1/">
  <title
     id="title1">save_item [#1411]</title>
  <desc
     id="desc1">Created with Sketch.</desc>
  <defs
     id="defs1" />
  <g
     id="Page-1"
     stroke="none"
     stroke-width="1"
     fill="none"
     fill-rule="evenodd">
    <g
       id="Dribbble-Light-Preview"
       transform="translate(-419,-640)"
       fill="#000000">
      <g
         id="icons"
         transform="translate(56,160)">
        <path
           d="m 363.21636,479.635 c 0,-0.0166 0.0141,-0.03 0.0315,-0.03 0.0174,0 0.0315,0.0134 0.0315,0.03 0,0.0166 -0.0141,0.03 -0.0315,0.03 -0.0174,0 -0.0315,-0.0134 -0.0315,-0.03 z m 0.35044,0.39 c 0,0.0166 -0.0141,0.03 -0.0315,0.03 h -0.0315 v -0.12 c 0,-0.0332 -0.0282,-0.06 -0.063,-0.06 h -0.252 c -0.0348,0 -0.063,0.0268 -0.063,0.06 v 0.12 h -0.0315 c -0.0174,0 -0.0315,-0.0134 -0.0315,-0.03 v -0.29868 c 0,-0.004 0.002,-0.008 0.005,-0.0106 l 0.0584,-0.0556 v 0.0349 c 0,0.0331 0.0282,0.06 0.063,0.06 h 0.252 c 0.0348,0 0.063,-0.0269 0.063,-0.06 v -0.12 h 0.0315 c 0.0174,0 0.0315,0.0134 0.0315,0.03 z m -0.126,0.03 h -0.252 v -0.09 c 0,-0.0166 0.0141,-0.03 0.0315,-0.03 h 0.189 c 0.0174,0 0.0315,0.0134 0.0315,0.03 z m -0.252,-0.45489 0.0264,-0.0251 h 0.22563 v 0.09 c 0,0.0166 -0.0141,0.03 -0.0315,0.03 h -0.189 c -0.0174,0 -0.0315,-0.0134 -0.0315,-0.03 z m 0.378,-0.0851 h -0.36496 c -0.008,0 -0.0163,0.003 -0.0223,0.009 l -0.17054,0.16242 c -0.006,0.006 -0.009,0.0133 -0.009,0.0212 v 0.34738 c 0,0.0331 0.0282,0.06 0.063,0.06 h 0.504 c 0.0348,0 0.063,-0.0269 0.063,-0.06 v -0.48 c 0,-0.0331 -0.0282,-0.06 -0.063,-0.06 z"
           id="save_item-[#1411]"
           style="fill:#ffffff;fill-opacity:1;stroke:none;stroke-width:0.03;stroke-opacity:1" />
      </g>
    </g>
  </g>
  <metadata
     id="metadata1">
    <rdf:RDF>
      <cc:Work
         rdf:about="">
        <dc:title>save_item [#1411]</dc:title>
      </cc:Work>
    </rdf:RDF>
  </metadata>
</svg>
