<?xml version="1.0" encoding="UTF-8" standalone="no"?>
<svg
   id="Layer_1"
   data-name="Layer 1"
   viewBox="0 0 1.125 1.125"
   width="24"
   height="24"
   version="1.1"
   sodipodi:docname="Horarios.svg"
   inkscape:version="1.4.2 (ebf0e940d0, 2025-05-08)"
   xmlns:inkscape="http://www.inkscape.org/namespaces/inkscape"
   xmlns:sodipodi="http://sodipodi.sourceforge.net/DTD/sodipodi-0.dtd"
   xmlns="http://www.w3.org/2000/svg"
   xmlns:svg="http://www.w3.org/2000/svg">
  <sodipodi:namedview
     id="namedview1"
     pagecolor="#ffffff"
     bordercolor="#000000"
     borderopacity="0.25"
     inkscape:showpageshadow="2"
     inkscape:pageopacity="0.0"
     inkscape:pagecheckerboard="0"
     inkscape:deskcolor="#d1d1d1"
     inkscape:zoom="34.666667"
     inkscape:cx="12"
     inkscape:cy="12"
     inkscape:window-width="1920"
     inkscape:window-height="1043"
     inkscape:window-x="0"
     inkscape:window-y="0"
     inkscape:window-maximized="1"
     inkscape:current-layer="Layer_1" />
  <defs
     id="defs1" />
  <path
     d="m 0.796875,0.47057812 c -0.18089063,0 -0.328125,0.1471875 -0.328125,0.328125 C 0.46875,0.97860938 0.61598437,1.125 0.796875,1.125 0.97776563,1.125 1.125,0.9778125 1.125,0.796875 1.125,0.61696875 0.97776563,0.47057812 0.796875,0.47057812 Z m 0,0.56067188 C 0.66764063,1.03125 0.5625,0.92690625 0.5625,0.79870312 c 0,-0.12923437 0.10514063,-0.234375 0.234375,-0.234375 0.12923437,0 0.234375,0.10434375 0.234375,0.23254688 0,0.12923437 -0.10514063,0.234375 -0.234375,0.234375 z M 0.8768906,0.81060938 c 0.0183281,0.0183281 0.0183281,0.0479531 0,0.0662812 C 0.86775,0.88603125 0.85575,0.890625 0.84375,0.890625 c -0.012,0 -0.024,-0.004594 -0.0331406,-0.0137344 L 0.7637344,0.8300156 C 0.75492187,0.82120312 0.75,0.80929687 0.75,0.796875 V 0.703125 C 0.75,0.67725 0.7709531,0.65625 0.796875,0.65625 c 0.0259219,0 0.046875,0.021 0.046875,0.046875 V 0.7774688 Z M 1.125,0.328125 v 0.09375 C 1.125,0.44775 1.104047,0.46875 1.078125,0.46875 1.052203,0.46875 1.03125,0.44775 1.03125,0.421875 V 0.328125 C 1.03125,0.25059375 0.96815625,0.1875 0.890625,0.1875 H 0.234375 C 0.1568438,0.1875 0.09375,0.2505937 0.09375,0.328125 V 0.375 H 0.515625 C 0.5415,0.375 0.5625,0.396 0.5625,0.421875 0.5625,0.44775 0.5415,0.46875 0.515625,0.46875 H 0.09375 v 0.421875 c 0,0.0775313 0.06309375,0.140625 0.140625,0.140625 h 0.1875 c 0.025875,0 0.046875,0.021 0.046875,0.046875 C 0.46875,1.104 0.44775,1.125 0.421875,1.125 h -0.1875 C 0.10514062,1.125 0,1.0198594 0,0.890625 v -0.5625 C 0,0.19889063 0.10514062,0.09375 0.234375,0.09375 H 0.28125 V 0.046875 C 0.28125,0.021 0.30225,0 0.328125,0 0.354,0 0.375,0.021 0.375,0.046875 V 0.09375 H 0.75 V 0.046875 C 0.75,0.021 0.77095312,0 0.796875,0 0.82279688,0 0.84375,0.021 0.84375,0.046875 V 0.09375 h 0.046875 c 0.1292344,0 0.234375,0.10514063 0.234375,0.234375 z"
     id="path1"
     style="stroke-width:0.046875;fill:#ffffff;fill-opacity:1" />
</svg>
