<?xml version="1.0" encoding="UTF-8" standalone="no"?>
<svg
   id="Layer_1"
   data-name="Layer 1"
   viewBox="0 0 1.125 1.125"
   width="24"
   height="24"
   version="1.1"
   sodipodi:docname="Materias.svg"
   inkscape:version="1.4.2 (ebf0e940d0, 2025-05-08)"
   xmlns:inkscape="http://www.inkscape.org/namespaces/inkscape"
   xmlns:sodipodi="http://sodipodi.sourceforge.net/DTD/sodipodi-0.dtd"
   xmlns="http://www.w3.org/2000/svg"
   xmlns:svg="http://www.w3.org/2000/svg">
  <sodipodi:namedview
     id="namedview1"
     pagecolor="#ffffff"
     bordercolor="#000000"
     borderopacity="0.25"
     inkscape:showpageshadow="2"
     inkscape:pageopacity="0.0"
     inkscape:pagecheckerboard="0"
     inkscape:deskcolor="#d1d1d1"
     inkscape:zoom="34.666667"
     inkscape:cx="12"
     inkscape:cy="12"
     inkscape:window-width="1920"
     inkscape:window-height="1043"
     inkscape:window-x="0"
     inkscape:window-y="0"
     inkscape:window-maximized="1"
     inkscape:current-layer="Layer_1" />
  <defs
     id="defs1" />
  <path
     d="M 1.125,1.0107172 0.78609258,0.09124783 C 0.77314429,0.05596843 0.74724771,0.02781998 0.71309425,0.01205684 0.6789877,-0.00380013 0.64075271,-0.00534829 0.60547331,0.00764691 L 0.56142098,0.02383228 C 0.54814429,0.02871134 0.53589971,0.03537314 0.52492181,0.04367694 0.49921289,0.01623219 0.46271372,-9.8527935e-4 0.42222686,-9.8527935e-4 H 0.14074229 C 0.06314637,-0.00103219 0,0.06211418 0,0.13971009 V 1.1249061 H 0.56296914 V 0.43550346 L 0.81668057,1.1238271 1.125,1.0107641 Z M 0.87227377,1.0034924 0.82700167,0.8806244 0.95911176,0.83216214 1.0043839,0.95503015 Z M 0.79453711,0.79261355 0.63085384,0.34852473 0.76296393,0.30001555 0.92664721,0.74410438 0.79453711,0.79256664 Z M 0.56733215,0.13619153 c 0.005254,-0.0113532 0.0146372,-0.0200323 0.0264126,-0.0243484 l 0.0440523,-0.01618536 c 0.005254,-0.0019235 0.0107433,-0.0029087 0.0161854,-0.0029087 0.006709,0 0.0133705,0.0014543 0.019657,0.004363 0.0114001,0.0052544 0.0200323,0.0146372 0.0243953,0.02645955 L 0.7305932,0.2119578 0.59848311,0.26046697 0.56587781,0.1720339 c -0.004316,-0.0117754 -0.0038,-0.0244891 0.001454,-0.0358893 z m -0.0981912,0.003519 v 0.0938282 H 0.32839867 V 0.092796 h 0.0938282 c 0.0258497,0 0.0469141,0.02101751 0.0469141,0.04691453 z M 0.32839867,0.32736647 H 0.46914095 V 0.79650742 H 0.32839867 Z M 0.23457048,0.79650742 H 0.09382819 V 0.32736647 H 0.23457048 Z M 0.14074229,0.092796 h 0.0938282 v 0.14074228 h -0.1407423 v -0.0938282 c 0,-0.0258966 0.02106443,-0.04691409 0.0469141,-0.04691408 z M 0.09382819,0.89033561 H 0.23457048 V 1.0310779 H 0.09382819 Z M 0.32839867,1.0310779 V 0.89033561 H 0.46914095 V 1.0310779 Z"
     id="path1"
     style="stroke-width:0.0469141;fill:#ffffff;fill-opacity:1" />
</svg>
