<?xml version="1.0" encoding="UTF-8" standalone="no"?>
<svg
   enable-background="new 35 0 210 28"
   height="30.27"
   viewBox="35 0 218.26998 30.27"
   width="218.26999"
   version="1.1"
   id="svg33"
   sodipodi:docname="logo_unrn_excel.svg"
   inkscape:version="1.4.2 (ebf0e940d0, 2025-05-08)"
   inkscape:export-filename="logo_unrn_excel.png"
   inkscape:export-xdpi="242.05194"
   inkscape:export-ydpi="242.05194"
   xml:space="preserve"
   xmlns:inkscape="http://www.inkscape.org/namespaces/inkscape"
   xmlns:sodipodi="http://sodipodi.sourceforge.net/DTD/sodipodi-0.dtd"
   xmlns="http://www.w3.org/2000/svg"
   xmlns:svg="http://www.w3.org/2000/svg"><defs
     id="defs33" /><sodipodi:namedview
     id="namedview33"
     pagecolor="#ffffff"
     bordercolor="#000000"
     borderopacity="0.25"
     inkscape:showpageshadow="2"
     inkscape:pageopacity="0.0"
     inkscape:pagecheckerboard="0"
     inkscape:deskcolor="#d1d1d1"
     inkscape:zoom="4.7619048"
     inkscape:cx="104.475"
     inkscape:cy="12.81"
     inkscape:window-width="1600"
     inkscape:window-height="831"
     inkscape:window-x="0"
     inkscape:window-y="0"
     inkscape:window-maximized="1"
     inkscape:current-layer="svg33"
     showgrid="false" /><g
     fill="#fff"
     id="g33"
     style="fill:#ffffff;fill-opacity:1"
     transform="translate(6.8189945,0.04549841)"><path
       d="m 52.64,15.429 c 0,3.079 -0.7,4.899 -2.1,6.3 -1.4,1.401 -3.64,2.268 -6.72,2.268 -3.08,0 -5.32,-0.867 -6.72,-2.268 C 35.7,20.328 35,18.508 35,15.429 V 4.367 h 6.356 v 11.342 c 0,1.146 0.224,1.68 0.644,2.1 0.42,0.42 0.98,0.699 1.82,0.699 0.84,0 1.4,-0.279 1.82,-0.699 0.42,-0.42 0.616,-0.98 0.616,-2.1 V 4.367 h 6.384 z"
       id="path1"
       style="fill:#ffffff;fill-opacity:1" /><path
       d="M 75.88,23.688 H 69.3 L 63.42,12.909 c 0,0 0.14,2.1 0.14,3.5 v 7.279 H 57.4 V 4.367 h 6.86 l 5.6,10.78 c 0,0 -0.14,-2.101 -0.14,-3.5 v -7.28 h 6.16 z"
       id="path2"
       style="fill:#ffffff;fill-opacity:1" /><path
       d="M 98.28,23.688 H 91 l -3.08,-6.439 h -0.812 v 6.439 H 80.78 V 4.367 h 8.399 c 2.381,0 4.2,0.42 5.601,1.4 1.399,0.98 2.38,2.66 2.38,4.76 0,3.92 -2.38,5.32 -3.221,5.824 z M 90.076,9.492 c -0.28,-0.225 -0.7,-0.363 -1.4,-0.363 H 87.08 v 3.359 h 1.596 c 0.7,0 1.148,-0.141 1.4,-0.337 0.309,-0.224 0.699,-0.504 0.699,-1.344 0,-0.84 -0.42,-1.119 -0.699,-1.315 z"
       id="path3"
       style="fill:#ffffff;fill-opacity:1" /><path
       d="m 119.839,23.688 h -6.579 l -5.881,-10.779 c 0,0 0.141,2.1 0.141,3.5 v 7.279 h -6.16 V 4.367 h 6.859 l 5.6,10.78 c 0,0 -0.139,-2.101 -0.139,-3.5 v -7.28 h 6.159 z"
       id="path4"
       style="fill:#ffffff;fill-opacity:1" /><path
       d="M 133.573,8.494 V 4.31 h 0.812 v 4.135 c 0,1.554 0.822,2.427 2.201,2.427 1.326,0 2.17,-0.802 2.17,-2.375 V 4.31 h 0.812 v 4.123 c 0,2.101 -1.203,3.188 -3.004,3.188 -1.776,0 -2.991,-1.09 -2.991,-3.127 z"
       id="path5"
       style="fill:#ffffff;fill-opacity:1" /><path
       d="m 141.355,6.191 h 0.791 v 0.926 c 0.351,-0.576 0.906,-1.039 1.82,-1.039 1.286,0 2.037,0.863 2.037,2.129 v 3.301 h -0.792 V 8.402 c 0,-0.988 -0.534,-1.605 -1.472,-1.605 -0.914,0 -1.596,0.67 -1.596,1.666 v 3.045 h -0.791 z"
       id="path6"
       style="fill:#ffffff;fill-opacity:1" /><path
       d="m 147.71,4.154 h 0.904 v 0.875 h -0.904 z m 0.052,2.037 h 0.793 v 5.314 h -0.793 z"
       id="path7"
       style="fill:#ffffff;fill-opacity:1" /><path
       d="m 149.868,6.191 h 0.875 l 1.789,4.412 1.801,-4.412 h 0.854 l -2.314,5.355 h -0.699 z"
       id="path8"
       style="fill:#ffffff;fill-opacity:1" /><path
       d="m 158.771,10.941 c 0.73,0 1.244,-0.297 1.679,-0.75 l 0.491,0.441 c -0.532,0.598 -1.182,0.996 -2.188,0.996 -1.462,0 -2.654,-1.121 -2.654,-2.775 0,-1.541 1.08,-2.775 2.553,-2.775 1.572,0 2.479,1.254 2.479,2.816 0,0.072 0,0.154 -0.01,0.277 h -4.217 c 0.112,1.124 0.933,1.77 1.867,1.77 z m 1.554,-2.406 c -0.093,-0.969 -0.646,-1.789 -1.695,-1.789 -0.915,0 -1.614,0.762 -1.729,1.789 z"
       id="path9"
       style="fill:#ffffff;fill-opacity:1" /><path
       d="m 162.516,6.191 h 0.791 V 7.58 c 0.391,-0.885 1.162,-1.522 2.17,-1.481 v 0.854 h -0.062 c -1.162,0 -2.108,0.834 -2.108,2.438 v 2.117 h -0.791 z"
       id="path10"
       style="fill:#ffffff;fill-opacity:1" /><path
       d="m 166.234,10.828 0.402,-0.564 c 0.572,0.434 1.213,0.679 1.84,0.679 0.64,0 1.103,-0.327 1.103,-0.844 v -0.021 c 0,-0.535 -0.629,-0.74 -1.328,-0.938 -0.832,-0.236 -1.758,-0.523 -1.758,-1.502 v -0.02 c 0,-0.916 0.76,-1.522 1.812,-1.522 0.646,0 1.366,0.228 1.911,0.587 l -0.358,0.598 c -0.494,-0.318 -1.062,-0.516 -1.574,-0.516 -0.627,0 -1.029,0.329 -1.029,0.771 v 0.021 c 0,0.504 0.658,0.698 1.369,0.916 0.822,0.245 1.707,0.563 1.707,1.521 v 0.021 c 0,1.008 -0.834,1.596 -1.893,1.596 -0.762,0 -1.605,-0.299 -2.204,-0.783 z"
       id="path11"
       style="fill:#ffffff;fill-opacity:1" /><path
       d="m 171.818,4.154 h 0.904 v 0.875 h -0.904 z m 0.052,2.037 h 0.791 v 5.314 h -0.791 z"
       id="path12"
       style="fill:#ffffff;fill-opacity:1" /><path
       d="M 174.193,8.865 V 8.844 c 0,-1.737 1.265,-2.766 2.539,-2.766 0.988,0 1.625,0.533 2.037,1.131 V 4 h 0.791 v 7.508 h -0.791 v -1.07 c -0.433,0.639 -1.062,1.184 -2.037,1.184 -1.274,-10e-4 -2.539,-1.009 -2.539,-2.757 z m 4.61,-0.011 v -0.02 c 0,-1.227 -0.938,-2.047 -1.925,-2.047 -1.028,0 -1.871,0.762 -1.871,2.047 v 0.021 c 0,1.256 0.863,2.058 1.871,2.058 0.986,-0.003 1.925,-0.835 1.925,-2.059 z"
       id="path13"
       style="fill:#ffffff;fill-opacity:1" /><path
       d="M 180.928,9.965 V 9.943 c 0,-1.143 0.926,-1.736 2.271,-1.736 0.678,0 1.152,0.092 1.625,0.226 V 8.269 c 0,-0.944 -0.576,-1.438 -1.574,-1.438 -0.627,0 -1.12,0.153 -1.611,0.381 L 181.4,6.562 c 0.588,-0.268 1.152,-0.451 1.935,-0.451 0.752,0 1.338,0.205 1.72,0.586 0.368,0.369 0.555,0.885 0.555,1.562 v 3.25 h -0.781 v -0.793 c -0.371,0.474 -0.977,0.904 -1.912,0.904 -1.002,0.001 -1.989,-0.565 -1.989,-1.655 z m 3.906,-0.411 V 9.062 c -0.391,-0.112 -0.902,-0.228 -1.553,-0.228 -0.985,0 -1.553,0.433 -1.553,1.068 v 0.021 c 0,0.668 0.617,1.06 1.336,1.06 0.979,-0.001 1.77,-0.587 1.77,-1.429 z"
       id="path14"
       style="fill:#ffffff;fill-opacity:1" /><path
       d="M 186.975,8.865 V 8.844 c 0,-1.737 1.265,-2.766 2.539,-2.766 0.986,0 1.625,0.533 2.037,1.131 V 4 h 0.791 v 7.508 h -0.791 v -1.07 c -0.434,0.639 -1.062,1.184 -2.037,1.184 -1.278,-10e-4 -2.539,-1.009 -2.539,-2.757 z m 4.605,-0.011 v -0.02 c 0,-1.227 -0.938,-2.047 -1.924,-2.047 -1.029,0 -1.871,0.762 -1.871,2.047 v 0.021 c 0,1.256 0.863,2.058 1.871,2.058 0.987,-0.003 1.924,-0.835 1.924,-2.059 z"
       id="path15"
       style="fill:#ffffff;fill-opacity:1" /><path
       d="m 197.324,4.31 h 0.762 l 4.535,5.771 V 4.31 h 0.791 v 7.198 h -0.646 L 198.12,5.605 v 5.903 h -0.793 V 4.31 Z"
       id="path16"
       style="fill:#ffffff;fill-opacity:1" /><path
       d="M 204.912,9.965 V 9.943 c 0,-1.143 0.927,-1.736 2.271,-1.736 0.68,0 1.151,0.092 1.625,0.226 V 8.269 c 0,-0.944 -0.574,-1.438 -1.572,-1.438 -0.627,0 -1.121,0.153 -1.615,0.381 l -0.234,-0.648 c 0.586,-0.268 1.15,-0.451 1.934,-0.451 0.75,0 1.337,0.205 1.718,0.586 0.371,0.369 0.558,0.885 0.558,1.562 v 3.25 h -0.783 v -0.793 c -0.369,0.474 -0.978,0.904 -1.912,0.904 -1.004,-10e-4 -1.99,-0.567 -1.99,-1.657 z M 208.82,9.554 V 9.062 c -0.391,-0.112 -0.906,-0.228 -1.553,-0.228 -0.988,0 -1.556,0.433 -1.556,1.068 v 0.021 c 0,0.668 0.617,1.06 1.339,1.06 0.977,-0.001 1.77,-0.587 1.77,-1.429 z"
       id="path17"
       style="fill:#ffffff;fill-opacity:1" /><path
       d="M 210.938,8.875 V 8.854 c 0,-1.5 1.174,-2.775 2.727,-2.775 1.008,0 1.635,0.422 2.129,0.945 l -0.525,0.557 c -0.42,-0.442 -0.895,-0.803 -1.612,-0.803 -1.08,0 -1.902,0.914 -1.902,2.057 v 0.021 c 0,1.15 0.843,2.066 1.953,2.066 0.681,0 1.203,-0.34 1.625,-0.793 l 0.504,0.475 c -0.534,0.598 -1.172,1.027 -2.17,1.027 -1.558,0 -2.729,-1.264 -2.729,-2.756 z"
       id="path18"
       style="fill:#ffffff;fill-opacity:1" /><path
       d="m 217.156,4.154 h 0.906 v 0.875 h -0.906 z m 0.051,2.037 H 218 v 5.314 h -0.793 z"
       id="path19"
       style="fill:#ffffff;fill-opacity:1" /><path
       d="M 219.514,8.875 V 8.854 c 0,-1.5 1.172,-2.775 2.773,-2.775 1.595,0 2.77,1.254 2.77,2.756 v 0.021 c 0,1.5 -1.186,2.775 -2.787,2.775 -1.594,0 -2.756,-1.254 -2.756,-2.756 z m 4.728,0 V 8.854 c 0,-1.143 -0.854,-2.076 -1.975,-2.076 -1.152,0 -1.943,0.936 -1.943,2.057 v 0.021 c 0,1.143 0.842,2.066 1.963,2.066 1.154,0 1.955,-0.926 1.955,-2.047 z"
       id="path20"
       style="fill:#ffffff;fill-opacity:1" /><path
       d="m 226.482,6.191 h 0.791 v 0.926 c 0.35,-0.576 0.904,-1.039 1.82,-1.039 1.284,0 2.036,0.863 2.036,2.129 v 3.301 h -0.793 V 8.402 c 0,-0.988 -0.534,-1.605 -1.471,-1.605 -0.914,0 -1.595,0.67 -1.595,1.666 v 3.045 h -0.791 V 6.191 Z"
       id="path21"
       style="fill:#ffffff;fill-opacity:1" /><path
       d="M 232.414,9.965 V 9.943 c 0,-1.143 0.928,-1.736 2.271,-1.736 0.68,0 1.151,0.092 1.625,0.226 V 8.269 c 0,-0.944 -0.574,-1.438 -1.572,-1.438 -0.627,0 -1.121,0.153 -1.615,0.381 l -0.234,-0.648 c 0.586,-0.268 1.15,-0.451 1.935,-0.451 0.75,0 1.336,0.205 1.717,0.586 0.371,0.369 0.558,0.885 0.558,1.562 v 3.25 h -0.783 v -0.793 c -0.369,0.474 -0.978,0.904 -1.912,0.904 -1.004,-10e-4 -1.99,-0.567 -1.99,-1.657 z m 3.908,-0.411 V 9.062 c -0.391,-0.112 -0.906,-0.228 -1.553,-0.228 -0.988,0 -1.556,0.433 -1.556,1.068 v 0.021 c 0,0.668 0.617,1.06 1.339,1.06 0.977,-0.001 1.77,-0.587 1.77,-1.429 z"
       id="path22"
       style="fill:#ffffff;fill-opacity:1" /><path
       d="m 238.839,4 h 0.793 v 7.508 h -0.793 z"
       id="path23"
       style="fill:#ffffff;fill-opacity:1" /><path
       d="M 133.184,21.871 V 21.85 c 0,-1.736 1.266,-2.766 2.541,-2.766 0.987,0 1.625,0.535 2.036,1.131 v -3.209 h 0.792 v 7.508 h -0.792 v -1.068 c -0.432,0.637 -1.06,1.182 -2.036,1.182 -1.276,-0.001 -2.541,-1.009 -2.541,-2.757 z m 4.607,-0.01 V 21.84 c 0,-1.223 -0.936,-2.047 -1.922,-2.047 -1.029,0 -1.873,0.762 -1.873,2.047 v 0.021 c 0,1.254 0.865,2.057 1.873,2.057 0.986,0 1.922,-0.834 1.922,-2.057 z"
       id="path24"
       style="fill:#ffffff;fill-opacity:1" /><path
       d="m 142.666,23.949 c 0.73,0 1.244,-0.299 1.677,-0.752 l 0.493,0.443 c -0.534,0.596 -1.182,0.996 -2.189,0.996 -1.461,0 -2.654,-1.121 -2.654,-2.775 0,-1.543 1.08,-2.777 2.551,-2.777 1.573,0 2.479,1.254 2.479,2.818 0,0.072 0,0.154 -0.01,0.277 h -4.217 c 0.112,1.122 0.934,1.77 1.87,1.77 z m 1.553,-2.408 c -0.092,-0.965 -0.647,-1.789 -1.696,-1.789 -0.915,0 -1.614,0.762 -1.728,1.789 z"
       id="path25"
       style="fill:#ffffff;fill-opacity:1" /><path
       d="m 149.475,17.314 h 3.291 c 0.916,0 1.625,0.258 2.098,0.73 0.401,0.402 0.617,0.967 0.617,1.646 v 0.02 c 0,1.162 -0.627,1.893 -1.543,2.232 l 1.76,2.57 h -1.852 l -1.543,-2.303 h -1.244 v 2.303 h -1.584 z m 3.188,3.498 c 0.771,0 1.214,-0.412 1.214,-1.02 v -0.02 c 0,-0.68 -0.474,-1.029 -1.245,-1.029 h -1.573 v 2.068 h 1.604 z"
       id="path26"
       style="fill:#ffffff;fill-opacity:1" /><path
       d="m 156.818,19.002 h 1.562 v 5.512 h -1.562 z m 1.306,-2.428 1.347,0.586 -1.336,1.234 h -1.152 z"
       id="path27"
       style="fill:#ffffff;fill-opacity:1" /><path
       d="m 159.584,21.789 v -0.021 c 0,-1.584 1.275,-2.869 2.993,-2.869 1.707,0 2.972,1.266 2.972,2.85 v 0.02 c 0,1.584 -1.275,2.869 -2.992,2.869 -1.707,-0.001 -2.973,-1.265 -2.973,-2.849 z m 4.422,0 v -0.021 c 0,-0.812 -0.586,-1.521 -1.449,-1.521 -0.895,0 -1.43,0.689 -1.43,1.502 v 0.02 c 0,0.812 0.586,1.523 1.45,1.523 0.895,-0.001 1.429,-0.69 1.429,-1.503 z"
       id="path28"
       style="fill:#ffffff;fill-opacity:1" /><path
       d="m 169.93,17.314 h 1.461 l 3.373,4.434 v -4.434 h 1.563 v 7.199 h -1.347 l -3.486,-4.576 v 4.576 h -1.564 z"
       id="path29"
       style="fill:#ffffff;fill-opacity:1" /><path
       d="m 177.623,21.789 v -0.021 c 0,-1.572 1.121,-2.869 2.725,-2.869 1.842,0 2.686,1.43 2.686,2.994 0,0.123 -0.012,0.266 -0.021,0.41 h -3.836 c 0.154,0.709 0.648,1.08 1.348,1.08 0.523,0 0.904,-0.164 1.336,-0.566 l 0.896,0.793 c -0.515,0.637 -1.255,1.027 -2.253,1.027 -1.657,0 -2.881,-1.162 -2.881,-2.848 z m 3.887,-0.463 c -0.092,-0.699 -0.504,-1.172 -1.162,-1.172 -0.647,0 -1.068,0.463 -1.192,1.172 z"
       id="path30"
       style="fill:#ffffff;fill-opacity:1" /><path
       d="m 184.226,25.604 0.535,-1.172 c 0.565,0.318 1.132,0.504 1.861,0.504 1.069,0 1.573,-0.514 1.573,-1.502 v -0.268 c -0.463,0.557 -0.967,0.896 -1.799,0.896 -1.286,0 -2.448,-0.938 -2.448,-2.572 v -0.02 c 0,-1.646 1.183,-2.572 2.448,-2.572 0.854,0 1.357,0.361 1.778,0.822 v -0.719 h 1.563 v 4.268 c 0,0.988 -0.236,1.707 -0.699,2.17 -0.514,0.514 -1.307,0.74 -2.376,0.74 -0.893,0.001 -1.736,-0.204 -2.436,-0.575 z m 3.969,-4.114 v -0.02 c 0,-0.752 -0.586,-1.275 -1.348,-1.275 -0.76,0 -1.336,0.523 -1.336,1.275 v 0.02 c 0,0.762 0.576,1.275 1.336,1.275 0.762,10e-4 1.348,-0.523 1.348,-1.275 z"
       id="path31"
       style="fill:#ffffff;fill-opacity:1" /><path
       d="m 191.137,19.002 h 1.563 v 1.111 c 0.319,-0.762 0.833,-1.256 1.759,-1.215 v 1.635 h -0.082 c -1.039,0 -1.677,0.629 -1.677,1.945 v 2.035 h -1.563 z"
       id="path32"
       style="fill:#ffffff;fill-opacity:1" /><path
       d="m 195.168,21.789 v -0.021 c 0,-1.584 1.275,-2.869 2.993,-2.869 1.708,0 2.972,1.266 2.972,2.85 v 0.02 c 0,1.584 -1.275,2.869 -2.992,2.869 -1.707,-0.001 -2.973,-1.265 -2.973,-2.849 z m 4.422,0 v -0.021 c 0,-0.812 -0.586,-1.521 -1.449,-1.521 -0.895,0 -1.43,0.689 -1.43,1.502 v 0.02 c 0,0.812 0.586,1.523 1.45,1.523 0.896,-0.001 1.429,-0.69 1.429,-1.503 z"
       id="path33"
       style="fill:#ffffff;fill-opacity:1" /></g><path
     id="rect1"
     style="fill:none;stroke:#000000;stroke-width:0.135;stroke-linecap:round;stroke-linejoin:round"
     d="M 35.0675,0.0675 H 253.20249 Z"
     sodipodi:nodetypes="ccc" /></svg>
